HIERARCHY
ROOT Root
{
	OFFSET 0.000000 0.000000 0.000000
	CHANNELS 6 Xposition Yposition Zposition Xrotation Yrotation Zrotation
	End Site
	{
		OFFSET 0.000000 0.000000 0.000000
	}
}
MOTION
Frames: 130
Frame Time: 0.033333
0.081379 -0.299745 1.538935 -27.198000 -9.905800 -177.016400 
0.077485 -0.393802 1.527475 -32.361100 -10.705200 -176.144400 
0.074277 -0.488391 1.508318 -37.492300 -11.650800 -175.337900 
0.071785 -0.582201 1.481358 -42.601600 -12.654600 -174.648200 
0.069929 -0.673905 1.446949 -47.611900 -13.634500 -174.075300 
0.068781 -0.764573 1.405397 -52.446700 -14.631500 -173.554000 
0.068577 -0.854550 1.356180 -57.085400 -15.750200 -173.129600 
0.069144 -0.941192 1.299086 -61.524700 -16.881400 -172.906000 
0.070084 -1.024115 1.235072 -65.768500 -17.797600 -172.735100 
0.071658 -1.107204 1.164151 -69.792800 -18.689700 -172.400300 
0.073934 -1.189246 1.084656 -73.533000 -20.030600 -172.246900 
0.075090 -1.259388 0.998248 -77.101400 -21.622500 -173.006300 
0.072451 -1.310361 0.913905 -80.825300 -22.486300 -174.663300 
0.065545 -1.349865 0.842541 -84.717500 -22.081800 -176.148000 
0.056391 -1.389558 0.788302 -88.129400 -20.911400 -176.560300 
0.046604 -1.428770 0.747248 -90.019300 -19.486900 -176.053500 
0.036027 -1.458166 0.713783 -89.795700 -17.555500 -175.239200 
0.024625 -1.474414 0.685429 -87.856700 -14.853200 -174.376100 
0.013495 -1.482420 0.661670 -85.138600 -11.742000 -173.465300 
0.003495 -1.485842 0.641838 -82.322700 -8.675700 -172.607200 
-0.005357 -1.484003 0.625521 -79.600700 -5.715400 -171.898700 
-0.012974 -1.477508 0.613072 -76.972800 -2.857800 -171.240600 
-0.018669 -1.469735 0.604456 -74.475600 -0.379200 -170.568000 
-0.021732 -1.462689 0.598447 -72.170400 1.432300 -170.082300 
-0.022456 -1.456035 0.593661 -70.112800 2.659200 -169.947400 
-0.022301 -1.449916 0.589780 -68.370200 3.579700 -169.926400 
-0.022502 -1.445600 0.587151 -67.016800 4.199500 -169.672300 
-0.022804 -1.443454 0.585734 -66.112400 4.308800 -169.277700 
-0.022068 -1.442131 0.584733 -65.653700 4.005700 -169.230000 
-0.019347 -1.439697 0.582874 -65.472500 3.714200 -169.912800 
-0.013777 -1.434808 0.578744 -65.129900 3.554600 -171.402300 
-0.004872 -1.427175 0.572262 -64.081300 3.161600 -173.555900 
0.005964 -1.417391 0.566224 -62.069900 2.283300 -175.934200 
0.015738 -1.406121 0.564586 -59.266300 1.141100 -177.883900 
0.023051 -1.393419 0.568241 -56.025100 0.025700 -179.177300 
0.029530 -1.378722 0.574149 -52.578500 -1.089200 179.690300 
0.036518 -1.361648 0.579542 -48.931300 -2.273600 178.286300 
0.042243 -1.342888 0.585224 -45.014900 -3.309700 176.980400 
0.044447 -1.324165 0.593331 -40.897300 -3.930600 176.383300 
0.044044 -1.307201 0.603702 -36.835300 -4.161800 176.381700 
0.043741 -1.293106 0.613966 -33.179500 -4.226100 176.342800 
0.044287 -1.282924 0.621909 -30.353400 -4.257000 176.042000 
0.044432 -1.277943 0.626280 -28.825600 -4.243600 175.783200 
0.043617 -1.278573 0.626494 -28.806400 -4.127800 175.755300 
0.042535 -1.283353 0.623184 -29.934500 -3.848700 175.823000 
0.041587 -1.289721 0.618414 -31.447400 -3.413200 175.892900 
0.040556 -1.295578 0.614451 -32.714400 -2.958300 176.038800 
0.039515 -1.299865 0.612534 -33.523500 -2.620200 176.260700 
0.038750 -1.302243 0.612872 -33.947300 -2.393800 176.436000 
0.038186 -1.302901 0.615158 -34.124100 -2.267600 176.514400 
0.037605 -1.302327 0.618782 -34.150500 -2.359800 176.557700 
0.037104 -1.300782 0.623115 -34.055500 -2.725600 176.614000 
0.036721 -1.298214 0.628061 -33.838300 -3.173000 176.692900 
0.036119 -1.294651 0.634020 -33.525300 -3.475800 176.811300 
0.035103 -1.290284 0.641220 -33.141700 -3.653900 176.965200 
0.033998 -1.285123 0.649465 -32.640700 -3.860500 177.116200 
0.033155 -1.278928 0.658574 -31.926400 -4.111300 177.258600 
0.032553 -1.271590 0.668655 -30.955600 -4.300200 177.433400 
0.032116 -1.263284 0.679674 -29.775700 -4.392800 177.650400 
0.031989 -1.254376 0.691149 -28.475300 -4.456500 177.865500 
0.032271 -1.245321 0.702399 -27.141400 -4.553900 178.044600 
0.032827 -1.236563 0.712983 -25.843300 -4.703600 178.187400 
0.033574 -1.228336 0.722777 -24.607800 -4.896100 178.294900 
0.034587 -1.220655 0.731782 -23.416400 -5.077800 178.365600 
0.035832 -1.213703 0.739879 -22.265600 -5.166700 178.416200 
0.037048 -1.208006 0.746775 -21.237500 -5.129800 178.460100 
0.038064 -1.204130 0.752211 -20.473500 -5.007600 178.483600 
0.038890 -1.202159 0.756328 -20.040300 -4.840100 178.478000 
0.039426 -1.201567 0.759772 -19.827900 -4.600300 178.472000 
0.039367 -1.201517 0.763328 -19.611500 -4.213800 178.498400 
0.038534 -1.201349 0.767380 -19.220900 -3.622400 178.554600 
0.037163 -1.200942 0.771784 -18.641800 -2.841100 178.628800 
0.035725 -1.200699 0.776186 -17.987400 -1.986300 178.735600 
0.034615 -1.201123 0.780372 -17.404000 -1.230300 178.891800 
0.034054 -1.202342 0.784360 -16.959200 -0.681000 179.081000 
0.034061 -1.204067 0.788355 -16.582000 -0.293600 179.271400 
0.034437 -1.206010 0.792612 -16.147200 0.076000 179.446500 
0.034907 -1.208209 0.797240 -15.632400 0.527500 179.594900 
0.035357 -1.210841 0.802081 -15.121000 1.044000 179.694100 
0.035847 -1.213909 0.806887 -14.640800 1.546300 179.735900 
0.036358 -1.217384 0.811591 -14.116300 1.972000 179.747500 
0.036733 -1.221481 0.816239 -13.515900 2.291000 179.761300 
0.036927 -1.226467 0.820748 -12.906700 2.485100 179.763100 
0.037158 -1.232210 0.824929 -12.305400 2.542100 179.674000 
0.037681 -1.238341 0.828660 -11.631600 2.465600 179.390100 
0.038453 -1.244963 0.831738 -10.901300 2.290000 178.869500 
0.039083 -1.252842 0.833719 -10.303200 2.093100 178.194800 
0.039070 -1.262652 0.834299 -9.957600 1.953400 177.510200 
0.038125 -1.274382 0.833694 -9.759800 1.852800 176.872100 
0.036248 -1.287790 0.832244 -9.600800 1.668200 176.216900 
0.033632 -1.302995 0.829765 -9.568600 1.312100 175.520800 
0.030579 -1.320091 0.825924 -9.740700 0.832100 174.905600 
0.027483 -1.338511 0.820994 -9.975200 0.314800 174.493200 
0.024524 -1.357503 0.815574 -10.180100 -0.226100 174.230300 
0.021369 -1.377102 0.809854 -10.615200 -0.776400 173.976100 
0.017483 -1.397726 0.804001 -11.566400 -1.215400 173.726800 
0.012936 -1.418872 0.799041 -12.798600 -1.419800 173.633700 
0.008595 -1.439108 0.796219 -13.703600 -1.449100 173.796600 
0.005253 -1.457538 0.795498 -13.999800 -1.510700 174.144500 
0.002946 -1.474465 0.795619 -13.969800 -1.735600 174.530800 
0.001257 -1.490469 0.795693 -13.980700 -2.034100 174.859300 
-0.000114 -1.505575 0.795985 -14.072200 -2.186000 175.127100 
-0.001275 -1.519636 0.796976 -14.104600 -2.058600 175.406000 
-0.002294 -1.532931 0.798358 -14.050600 -1.731200 175.779000 
-0.003084 -1.545892 0.799465 -13.975800 -1.422400 176.277300 
-0.003284 -1.558615 0.800189 -13.864700 -1.292000 176.876500 
-0.002522 -1.570866 0.801045 -13.619300 -1.307000 177.540400 
-0.000704 -1.582557 0.802475 -13.199900 -1.309500 178.240500 
0.002024 -1.593985 0.804349 -12.709200 -1.201300 178.939000 
0.005481 -1.605676 0.806087 -12.338800 -1.021800 179.588600 
0.009583 -1.617957 0.807217 -12.223500 -0.858200 -179.843500 
0.014420 -1.630609 0.807705 -12.324500 -0.751400 -179.372500 
0.020160 -1.642956 0.807763 -12.472100 -0.710100 -179.021400 
0.026637 -1.654363 0.807590 -12.545400 -0.726900 -178.843700 
0.033025 -1.664594 0.807418 -12.579200 -0.721000 -178.905500 
0.038222 -1.673662 0.807687 -12.664800 -0.547900 -179.219400 
0.041676 -1.681541 0.808779 -12.781300 -0.164500 -179.691100 
0.043746 -1.688249 0.810623 -12.798100 0.267000 179.833200 
0.045250 -1.693992 0.812620 -12.652900 0.538900 179.437700 
0.046906 -1.698803 0.813920 -12.440600 0.616600 179.076400 
0.049185 -1.702194 0.813780 -12.256800 0.607200 178.647400 
0.052227 -1.703779 0.811985 -12.039900 0.579800 178.091200 
0.055723 -1.704370 0.808871 -11.732000 0.534300 177.407500 
0.059103 -1.705831 0.804667 -11.538700 0.507900 176.620400 
0.062179 -1.709318 0.798873 -11.761100 0.601300 175.760800 
0.065286 -1.714147 0.790877 -12.342900 0.890100 174.876000 
0.068583 -1.718892 0.780804 -12.883700 1.355300 174.045400 
0.071732 -1.723159 0.769231 -13.186600 1.869300 173.372500 
0.074587 -1.727632 0.756303 -13.474300 2.226500 172.918600 
0.077546 -1.732895 0.741858 -13.958100 2.241500 172.642000 
